<?xml version="1.0" encoding="utf-8"?>
<!-- Generator: Adobe Illustrator 16.0.0, SVG Export Plug-In . SVG Version: 6.00 Build 0)  -->
<!DOCTYPE svg PUBLIC "-//W3C//DTD SVG 1.1//EN" "http://www.w3.org/Graphics/SVG/1.1/DTD/svg11.dtd">
<svg version="1.1" xmlns="http://www.w3.org/2000/svg" xmlns:xlink="http://www.w3.org/1999/xlink" x="0px" y="0px" width="180px"
	 height="206px" viewBox="0 0 180 206" enable-background="new 0 0 180 206" xml:space="preserve">
<g id="Layer_2">
	<rect x="-9.845" y="-1.892" fill="#F6F6F6" width="193.961" height="209.179"/>
</g>
<g id="Layer_1">
	<g>
		<path fill="#00B2BC" d="M70.82,94.042c0-1.12,0.685-1.688,1.63-1.688c0.946,0,1.63,0.568,1.63,1.688v9.459h3.501
			c1.027,0,1.63,0.549,1.63,1.471c0,0.884-0.603,1.472-1.63,1.472H72.45c-0.845,0-1.63-0.569-1.63-1.59V94.042z"/>
		<path fill="#00B2BC" d="M81.206,91.332c1.027,0,1.872,0.806,1.872,1.826c0,1.021-0.845,1.826-1.872,1.826
			c-1.025,0-1.872-0.804-1.872-1.826C79.334,92.138,80.181,91.332,81.206,91.332z M79.637,97.476c0-0.883,0.645-1.59,1.569-1.59
			c0.927,0,1.57,0.707,1.57,1.59v7.496c0,0.884-0.643,1.591-1.57,1.591c-0.925,0-1.569-0.707-1.569-1.591V97.476z"/>
		<path fill="#00B2BC" d="M83.823,99.124c-0.281-0.687-0.483-1.236-0.483-1.707c0-0.824,0.706-1.531,1.571-1.531
			c0.624,0,1.168,0.196,1.509,1.159l1.671,4.63h0.04l1.671-4.63c0.342-0.962,0.885-1.159,1.511-1.159
			c0.863,0,1.568,0.707,1.568,1.531c0,0.471-0.201,1.021-0.482,1.707l-2.557,6.201c-0.303,0.729-0.846,1.238-1.731,1.238
			c-0.886,0-1.429-0.51-1.731-1.238L83.823,99.124z"/>
		<path fill="#00B2BC" d="M96.465,102.224c0,0.648,0.502,1.708,2.517,1.708c1.55,0,2.495-0.962,3.22-0.962
			c0.704,0,1.309,0.53,1.309,1.315c0,1.491-2.557,2.473-4.932,2.473c-3.383,0-5.494-2.454-5.494-5.534
			c0-2.943,2.273-5.533,5.494-5.533c3.1,0,5.093,2.53,5.093,5.2c0,1.078-0.522,1.333-1.53,1.333H96.465z M100.531,100.125
			c0-0.687-0.807-1.845-2.034-1.845s-2.032,1.158-2.032,1.845H100.531z"/>
		<path fill="#414042" d="M104.699,97.476c0-0.883,0.643-1.59,1.569-1.59c0.845,0,1.368,0.531,1.569,0.981
			c0.504-0.765,1.35-1.176,2.699-1.176c2.173,0,3.904,1.099,3.904,3.609v5.672c0,0.884-0.646,1.591-1.571,1.591
			s-1.57-0.707-1.57-1.591v-4.847c0-1.06-0.644-1.845-1.73-1.845s-1.731,0.785-1.731,1.845v4.847c0,0.884-0.645,1.591-1.569,1.591
			c-0.927,0-1.569-0.707-1.569-1.591V97.476z"/>
		<path fill="#414042" d="M126.056,101.224c0,3.08-2.114,5.534-5.293,5.534c-3.181,0-5.295-2.454-5.295-5.534
			c0-3.082,2.114-5.533,5.295-5.533C123.941,95.69,126.056,98.142,126.056,101.224z M118.607,101.224c0,1.412,0.766,2.59,2.155,2.59
			c1.387,0,2.152-1.178,2.152-2.59c0-1.414-0.766-2.591-2.152-2.591C119.373,98.633,118.607,99.81,118.607,101.224z"/>
		<path fill="#414042" d="M126.741,99.065c-0.262-0.687-0.443-1.159-0.483-1.709c0-0.802,0.543-1.471,1.591-1.471
			c0.743,0,1.286,0.393,1.488,1.079l1.529,4.964h0.04l1.41-4.297c0.261-0.804,0.563-1.747,1.689-1.747
			c1.128,0,1.43,0.942,1.692,1.747l1.408,4.297h0.042l1.527-4.964c0.201-0.686,0.745-1.079,1.491-1.079
			c1.045,0,1.59,0.668,1.59,1.471c-0.041,0.55-0.221,1.022-0.483,1.709l-2.194,5.986c-0.362,1.001-0.887,1.511-1.953,1.511
			c-1.126,0-1.509-0.57-1.871-1.609l-1.229-3.612h-0.04l-1.228,3.612c-0.361,1.039-0.745,1.609-1.871,1.609
			c-1.067,0-1.591-0.51-1.953-1.511L126.741,99.065z"/>
	</g>
	<g>
		<path fill="#00B2BC" d="M71.325,115.761c0,0.285-0.171,0.463-0.443,0.463c-0.271,0-0.442-0.178-0.442-0.463v-6.135
			c0-0.344,0.121-0.51,0.402-0.51c0.263,0,0.382,0.107,0.625,0.451l3.625,5.074h0.02v-5.064c0-0.287,0.171-0.461,0.443-0.461
			s0.443,0.174,0.443,0.461v6.135c0,0.344-0.122,0.512-0.403,0.512c-0.261,0-0.381-0.109-0.624-0.455l-3.624-5.074h-0.021V115.761z"
			/>
		<path fill="#00B2BC" d="M81.812,111.345c0-0.285,0.172-0.461,0.444-0.461c0.272,0,0.442,0.176,0.442,0.461v2.768
			c0,0.893,0.404,1.363,1.239,1.363c0.837,0,1.238-0.471,1.238-1.363v-2.768c0-0.285,0.17-0.461,0.443-0.461
			c0.272,0,0.443,0.176,0.443,0.461v2.797c0,1.529-1.046,2.082-2.125,2.082c-1.078,0-2.125-0.553-2.125-2.082V111.345z"/>
		<path fill="#00B2BC" d="M92.16,109.813c0-0.287,0.171-0.463,0.442-0.463c0.272,0,0.443,0.176,0.443,0.463v1.129h0.362
			c0.292,0,0.443,0.135,0.443,0.371s-0.151,0.373-0.443,0.373h-0.362v4.074c0,0.285-0.171,0.463-0.443,0.463
			c-0.271,0-0.442-0.178-0.442-0.463v-4.074h-0.363c-0.291,0-0.443-0.137-0.443-0.373s0.152-0.371,0.443-0.371h0.363V109.813z"/>
		<path fill="#00B2BC" d="M99.145,111.345c0-0.285,0.172-0.461,0.443-0.461c0.272,0,0.442,0.176,0.442,0.461v0.441h0.021
			c0.202-0.402,0.695-0.902,1.208-0.902c0.313,0,0.495,0.193,0.495,0.441c0,0.244-0.182,0.402-0.555,0.469
			c-0.523,0.09-1.169,0.471-1.169,1.484v2.482c0,0.285-0.17,0.463-0.442,0.463c-0.271,0-0.443-0.178-0.443-0.463V111.345z"/>
		<path fill="#00B2BC" d="M107.408,109.116c0.303,0,0.543,0.234,0.543,0.529s-0.24,0.531-0.543,0.531s-0.543-0.236-0.543-0.531
			S107.105,109.116,107.408,109.116z M107.851,115.761c0,0.285-0.171,0.463-0.442,0.463s-0.443-0.178-0.443-0.463v-4.416
			c0-0.285,0.172-0.461,0.443-0.461s0.442,0.176,0.442,0.461V115.761z"/>
		<path fill="#00B2BC" d="M113.951,109.813c0-0.287,0.171-0.463,0.442-0.463c0.272,0,0.444,0.176,0.444,0.463v1.129h0.36
			c0.293,0,0.443,0.135,0.443,0.371s-0.15,0.373-0.443,0.373h-0.36v4.074c0,0.285-0.172,0.463-0.444,0.463
			c-0.271,0-0.442-0.178-0.442-0.463v-4.074h-0.362c-0.294,0-0.443-0.137-0.443-0.373s0.149-0.371,0.443-0.371h0.362V109.813z"/>
		<path fill="#00B2BC" d="M121.379,109.116c0.303,0,0.543,0.234,0.543,0.529s-0.24,0.531-0.543,0.531
			c-0.302,0-0.544-0.236-0.544-0.531S121.077,109.116,121.379,109.116z M121.821,115.761c0,0.285-0.171,0.463-0.442,0.463
			c-0.272,0-0.443-0.178-0.443-0.463v-4.416c0-0.285,0.171-0.461,0.443-0.461c0.271,0,0.442,0.176,0.442,0.461V115.761z"/>
		<path fill="#00B2BC" d="M129.764,110.884c1.51,0,2.355,1.283,2.355,2.67c0,1.381-0.846,2.67-2.355,2.67
			c-1.512,0-2.357-1.289-2.357-2.67C127.406,112.167,128.252,110.884,129.764,110.884z M129.764,115.476
			c1.088,0,1.47-1.041,1.47-1.922c0-0.887-0.382-1.926-1.47-1.926c-1.087,0-1.47,1.039-1.47,1.926
			C128.294,114.435,128.677,115.476,129.764,115.476z"/>
		<path fill="#00B2BC" d="M137.704,111.345c0-0.285,0.172-0.461,0.443-0.461s0.443,0.176,0.443,0.461v0.205l0.02,0.02
			c0.394-0.492,0.946-0.686,1.481-0.686c0.825,0,1.861,0.51,1.861,1.98v2.896c0,0.285-0.172,0.463-0.443,0.463
			c-0.271,0-0.443-0.178-0.443-0.463v-2.846c0-0.914-0.653-1.287-1.238-1.287c-0.583,0-1.237,0.373-1.237,1.287v2.846
			c0,0.285-0.172,0.463-0.443,0.463s-0.443-0.178-0.443-0.463V111.345z"/>
	</g>
	<path fill="none" stroke="#00B2BC" stroke-width="4" stroke-miterlimit="10" d="M44.331,98.033c0,0,2.609,2.506,6.168,1.458
		c5.285-1.724,7.363,1.863,7.363,5.316c0,0-0.092,5.622-5.767,5.622C46.42,110.429,41.637,104.889,44.331,98.033z"/>
	<path fill="none" stroke="#00B2BC" stroke-width="4" stroke-linecap="round" stroke-linejoin="round" stroke-miterlimit="10" d="
		M52.095,105.734c0,0,7.989,0.219,8.82,8.362"/>
	<path fill="#00B2BC" d="M58.258,111.548c-1.996,2.063-4.821,3.352-7.952,3.352c-6.032,0-10.941-4.787-10.941-10.669
		s4.909-10.667,10.941-10.667c6.033,0,10.942,4.785,10.942,10.667c0,1.312-0.245,2.565-0.69,3.726
		c0.22,0.322,0.531,0.805,0.84,1.359c0.748-1.543,1.168-3.267,1.168-5.085c0-6.589-5.5-11.953-12.261-11.953
		c-6.759,0-12.259,5.363-12.259,11.953c0,6.591,5.5,11.954,12.259,11.954c3.256,0,6.216-1.246,8.414-3.271
		C58.602,112.466,58.447,111.976,58.258,111.548z"/>
</g>
</svg>
